<mxfile host="app.diagrams.net" modified="2023-07-04T09:24:03.596Z" agent="Mozilla/5.0 (X11; Linux x86_64) AppleWebKit/537.36 (KHTML, like Gecko) Chrome/114.0.0.0 Safari/537.36" version="21.5.2" etag="SwJLWF8B_xJqB_Ds2qic" type="github">
  <diagram name="Page-1" id="znM8gPd4nr-B5Jry82K4">
    <mxGraphModel>
      <root>
        <mxCell id="0" />
        <mxCell id="1" parent="0" />
      </root>
    </mxGraphModel>
  </diagram>
</mxfile>
